<svg width="30" height="32" viewBox="0 0 30 32" fill="none" xmlns="http://www.w3.org/2000/svg">
<path d="M4.69811 24.3898H25.566M4.69811 24.3898C4.69811 24.7772 4.69811 25.9436 4.69811 27.6949M4.69811 24.3898V20.8305M25.566 24.3898C25.566 23.4942 25.566 22.1757 25.566 20.8305M25.566 24.3898V27.6949M25.566 20.8305C25.566 18.8663 25.566 16.845 25.566 16C25.566 14.5763 25.0377 13.5424 24.7736 13.2034C23.9934 12.3947 22.6078 10.9404 21.6038 9.83858M25.566 20.8305H27.4151C27.9434 20.8305 29 21.2373 29 22.8644C29 24.4915 29 26.0847 29 26.678C29 27.0169 28.683 27.6949 27.4151 27.6949C26.1472 27.6949 25.6541 27.6949 25.566 27.6949M25.566 27.6949V27.9492C25.566 28.9661 24.8792 31 22.1321 31C19.3849 31 10.9497 31 7.07547 31C6.28302 30.9153 4.69811 30.2373 4.69811 28.2034C4.69811 28.0289 4.69811 27.8593 4.69811 27.6949M4.69811 27.6949H2.84906C2.2327 27.6949 1 27.3898 1 26.1695C1 24.9492 1 23.1186 1 22.3559C1 21.8475 1.36981 20.8305 2.84906 20.8305C3.69434 20.8305 4.43396 20.8305 4.69811 20.8305M4.69811 20.8305V16C4.69811 15.4068 4.8566 14.0169 5.49057 13.2034C5.9523 12.6108 7.28281 11.0832 8.37987 9.83858M13.4151 7.61017C13.1376 7.61017 12.871 7.61017 12.6226 7.61017C12.2409 7.61017 11.8879 7.64474 11.566 7.70217M13.4151 7.61017V5.57627C13.4151 5.15254 13.7321 4.30508 15 4.30508C16.2679 4.30508 16.5849 5.15254 16.5849 5.57627V7.61017M13.4151 7.61017C14.4477 7.61017 15.631 7.61017 16.5849 7.61017M16.5849 7.61017C17.1194 7.61017 17.582 7.61017 17.9057 7.61017C18.0471 7.61017 18.2294 7.62088 18.434 7.64723M18.434 7.64723C19.1207 7.73567 20.0587 8.00028 20.5472 8.62712C20.749 8.88616 21.1348 9.3239 21.6038 9.83858M18.434 7.64723L21.6038 2.01695C21.8679 1.67797 22.6604 1 23.717 1C25.0377 1 26.6226 1.50847 25.8302 3.0339C25.1962 4.25424 22.7484 8.07883 21.6038 9.83858M11.566 7.70217C10.4626 7.89907 9.7255 8.36468 9.45283 8.62712C9.16579 8.94943 8.78907 9.37432 8.37987 9.83858M11.566 7.70217L8.66038 2.01695C8.48428 1.67797 7.92075 1 7.07547 1C6.23019 1 5.66667 1 5.49057 1C4.69811 1.08475 3.32453 1.61017 4.16981 3.0339C5.01509 4.45763 7.32872 8.16357 8.37987 9.83858M8.13208 15.4915V19.8136C8.13208 20.1525 8.44906 20.8305 9.71698 20.8305C10.9849 20.8305 17.6415 20.8305 20.8113 20.8305C21.2516 20.8305 22.1321 20.5763 22.1321 19.5593C22.1321 18.5424 22.1321 16.4237 22.1321 15.4915C22.1321 15.0678 21.8679 14.2203 20.8113 14.2203C19.7547 14.2203 12.9748 14.2203 9.71698 14.2203C9.18868 14.2203 8.13208 14.4746 8.13208 15.4915Z" stroke="#2C2E65"/>
</svg>
