<svg width="20" height="32" viewBox="0 0 20 32" fill="none" xmlns="http://www.w3.org/2000/svg">
<path d="M17.125 20.125V20.125C18.1605 20.125 19 19.2864 19 18.2508C19 15.601 19 11.4793 19 7.75C19 4.37888 17.027 2.53683 15.1595 1.65227C14.0723 1.1373 13 2.06257 13 3.26556V20.125M17.125 20.125V29C17.125 30.1046 16.2296 31 15.125 31H15C13.8954 31 13 30.1046 13 29V20.125M17.125 20.125H13M1 1V7M1 7V11.1796C1 11.8483 1.3342 12.4728 1.8906 12.8437L2.3594 13.1563C2.9158 13.5272 3.25 14.1517 3.25 14.8204V29.125C3.25 30.1605 4.08947 31 5.125 31V31C6.16053 31 7 30.1605 7 29.125V14.8204C7 14.1517 7.3342 13.5272 7.8906 13.1563L8.3594 12.8437C8.9158 12.4728 9.25 11.8483 9.25 11.1796V7M1 7H5.125M5.125 7V1M5.125 7H9.25M9.25 7V1.75V1" stroke="#2C2E65" stroke-linecap="round"/>
</svg>
