<svg width="26" height="29" viewBox="0 0 26 29" fill="none" xmlns="http://www.w3.org/2000/svg">
<path d="M5 1L1 6.4V25.3C1 26.0161 1.28095 26.7028 1.78105 27.2092C2.28115 27.7155 2.95942 28 3.66667 28H22.3333C23.0406 28 23.7189 27.7155 24.219 27.2092C24.719 26.7028 25 26.0161 25 25.3V6.4L21 1H5Z" stroke="#2C2E65" stroke-linecap="round" stroke-linejoin="round"/>
<path d="M1 6.40039H25" stroke="#2C2E65" stroke-linecap="round" stroke-linejoin="round"/>
<path d="M18.3307 11.8008C18.3307 13.233 17.7688 14.6065 16.7686 15.6192C15.7684 16.6319 14.4119 17.2008 12.9974 17.2008C11.5829 17.2008 10.2264 16.6319 9.22616 15.6192C8.22597 14.6065 7.66406 13.233 7.66406 11.8008" stroke="#2C2E65" stroke-linecap="round" stroke-linejoin="round"/>
</svg>
