<svg width="30" height="29" viewBox="0 0 30 29" fill="none" xmlns="http://www.w3.org/2000/svg">
<path d="M10.1011 17.0247C10.1011 17.5115 9.7121 17.8969 9.24378 17.8969C8.77557 17.8969 8.38672 17.5116 8.38672 17.0247C8.38672 16.5376 8.77563 16.1523 9.24378 16.1523C9.71205 16.1523 10.1011 16.5377 10.1011 17.0247Z" stroke="#2C2E65"/>
<path d="M21.8159 17.0247C21.8159 17.5115 21.4269 17.8969 20.9586 17.8969C20.4904 17.8969 20.1016 17.5116 20.1016 17.0247C20.1016 16.5376 20.4905 16.1523 20.9586 16.1523C21.4269 16.1523 21.8159 16.5377 21.8159 17.0247Z" stroke="#2C2E65"/>
<path d="M6.58187 5.95265L6.58243 5.95205C7.66711 4.79764 9.14163 4.13054 10.5711 3.75415C11.9974 3.3786 13.3398 3.30284 14.1142 3.30284H14.8544H14.9777C14.9828 3.30284 14.9976 3.30212 15.0215 3.30095C15.2888 3.28788 16.6938 3.21919 18.4181 3.48419C20.3097 3.77491 22.4701 4.45321 23.8657 5.95059L23.8676 5.95264C25.6692 7.86392 26.8443 10.613 27.5679 13.1315C28.2889 15.6408 28.5418 17.8488 28.5433 18.639C28.4528 21.7503 27.2747 24.1922 25.1977 25.8664C23.1073 27.5513 20.0537 28.5003 16.1499 28.5003H14.2992C10.3953 28.5003 7.32598 27.5512 5.22787 25.8659C3.1433 24.1915 1.96643 21.7503 1.90625 18.6414C1.90721 17.8218 2.15988 15.6118 2.8814 13.1083C3.60476 10.5985 4.77967 7.86442 6.58187 5.95265Z" stroke="#2C2E65"/>
<path d="M24.5369 5.80987L24.5363 5.80929C23.148 4.51782 23.0001 2.58306 24.0123 1.45713L24.021 1.44748L24.0292 1.4374C24.461 0.903775 25.2822 0.56048 26.2469 0.5H26.4167C27.2744 0.5 28.0838 0.824533 28.6781 1.3118C29.2759 1.87254 29.5365 2.70706 29.4954 3.59467C29.4539 4.49016 29.1059 5.37451 28.5743 5.96576L28.5727 5.96757C28.1089 6.48858 27.5539 6.74612 26.874 6.79953C26.1258 6.84901 25.2692 6.49341 24.5369 5.80987Z" stroke="#2C2E65"/>
<path d="M6.05995 1.91975L6.05981 1.91986L6.06846 1.92999C7.03258 3.05883 6.879 5.0035 5.54885 6.29546C4.8246 6.96992 3.96744 7.33393 3.08544 7.28153L3.0707 7.28066L3.05593 7.28065C2.42755 7.28048 1.87249 6.9926 1.38396 6.50177C0.860215 5.91416 0.529391 5.03794 0.501856 4.14715C0.474285 3.25518 0.750906 2.41205 1.35912 1.84779C1.94246 1.31193 2.74565 0.982422 3.67266 0.982422H3.84238C4.80675 1.04266 5.6281 1.38596 6.05995 1.91975Z" stroke="#2C2E65"/>
<path d="M15.4739 20.9435C17.569 20.9435 18.0928 19.6595 18.0928 19.0176H12.3787C12.3787 19.9805 12.8549 20.9435 15.4739 20.9435ZM15.4739 20.9435V22.1471M15.4739 22.1471C15.8707 23.0298 17.1405 24.5545 19.0452 23.5915M15.4739 22.1471C15.077 23.0298 13.8549 24.5545 12.1406 23.5915" stroke="#2C2E65"/>
</svg>
