<svg width="32" height="19" viewBox="0 0 32 19" fill="none" xmlns="http://www.w3.org/2000/svg">
<rect x="12.2383" y="7.03906" width="7.5217" height="4.92308" stroke="#2C2E65"/>
<rect x="3.10938" y="1.80859" width="3.60868" height="15.3846" rx="1" stroke="#2C2E65"/>
<rect x="25.2852" y="1.80859" width="3.60868" height="15.3846" rx="1" stroke="#2C2E65"/>
<rect x="20.0664" y="0.5" width="4.91302" height="18" rx="1" stroke="#2C2E65"/>
<rect x="7.01953" y="0.5" width="4.91302" height="18" rx="1" stroke="#2C2E65"/>
<path d="M2.80434 7.53906V7.03906H2.30434H1.5C0.947715 7.03906 0.5 7.48678 0.5 8.03906V10.9621C0.5 11.5144 0.947716 11.9621 1.5 11.9621H2.30434H2.80434V11.4621V7.53906Z" stroke="#2C2E65"/>
<path d="M29.6953 7.03906H29.1953V7.53906V11.4621V11.9621H29.6953H30.4997C31.0519 11.9621 31.4997 11.5144 31.4997 10.9621V8.03906C31.4997 7.48678 31.0519 7.03906 30.4997 7.03906H29.6953Z" stroke="#2C2E65"/>
</svg>
