<svg width="37" height="38" viewBox="0 0 37 38" fill="none" xmlns="http://www.w3.org/2000/svg">
<path d="M18.1319 27.5588C13.4131 27.5588 9.57422 23.7197 9.57422 19.0011C9.57422 14.2824 13.4133 10.4434 18.1319 10.4434C22.8506 10.4434 26.6896 14.2824 26.6896 19.0011C26.6896 23.7197 22.8506 27.5588 18.1319 27.5588ZM18.1319 12.1317C14.3446 12.1317 11.2632 15.2132 11.2632 19.0004C11.2632 22.7876 14.3447 25.8691 18.1319 25.8691C21.9191 25.8691 25.0006 22.7876 25.0006 19.0004C25.0006 15.2132 21.9191 12.1317 18.1319 12.1317Z" fill="white"/>
<path d="M18.1322 27.5539C12.2568 27.5539 6.38375 25.0982 0.549237 20.1844C0.200401 19.8909 0.000271436 19.4594 0 19.0008C0 18.5423 0.200129 18.1105 0.549237 17.8165C12.2162 7.99051 24.0475 7.99119 35.7144 17.8165H35.715C36.0638 18.1105 36.2639 18.5423 36.2639 19.0008C36.2639 19.4594 36.0633 19.891 35.7147 20.1846C29.882 25.0965 24.0056 27.5541 18.1318 27.5541L18.1322 27.5539ZM1.76595 19.0002C12.7774 28.2046 23.4869 28.2046 34.4977 19.0002C23.4876 9.79584 12.7781 9.79584 1.76595 19.0002Z" fill="white"/>
<path d="M18.1313 23.6867C15.5474 23.6867 13.4453 21.5845 13.4453 19.0005C13.4453 16.4165 15.5476 14.3145 18.1313 14.3145C20.7153 14.3145 22.8176 16.4167 22.8176 19.0005C22.8176 21.5844 20.7153 23.6867 18.1313 23.6867ZM18.1313 16.0037C16.4786 16.0037 15.1344 17.3482 15.1344 19.0007C15.1344 20.6534 16.4788 21.9981 18.1313 21.9981C19.784 21.9981 21.1288 20.6534 21.1288 19.0007C21.1288 17.3479 19.7841 16.0037 18.1313 16.0037Z" fill="white"/>
<path d="M18.1336 6.65887C17.6673 6.65887 17.2891 6.28061 17.2891 5.81436V0.844505C17.2891 0.378239 17.6673 0 18.1336 0C18.5998 0 18.9781 0.37826 18.9781 0.844505V5.81463C18.9781 6.28064 18.5998 6.65887 18.1336 6.65887Z" fill="white"/>
<path d="M24.2304 7.97281C24.0952 7.97281 23.9577 7.94021 23.8307 7.87155C23.4198 7.65022 23.2669 7.13806 23.4879 6.72779L25.5987 2.81314C25.82 2.40227 26.3324 2.24906 26.743 2.47066C27.1539 2.692 27.3068 3.20415 27.0857 3.61442L24.975 7.52907C24.8223 7.81191 24.531 7.97281 24.2304 7.97281H24.2304Z" fill="white"/>
<path d="M12.0345 7.97281C11.7339 7.97281 11.4429 7.81191 11.2904 7.52907L9.17942 3.61442C8.95809 3.20409 9.11156 2.69141 9.5219 2.47066C9.93224 2.24906 10.4449 2.40227 10.6657 2.81314L12.7764 6.72779C12.9978 7.13813 12.8443 7.65081 12.4339 7.87155C12.307 7.94021 12.1697 7.97281 12.0345 7.97281H12.0345Z" fill="white"/>
<path d="M18.1336 38.0009C17.6673 38.0009 17.2891 37.6227 17.2891 37.1564V32.1863C17.2891 31.72 17.6673 31.3418 18.1336 31.3418C18.5998 31.3418 18.9781 31.7201 18.9781 32.1863V37.1564C18.9781 37.6227 18.5998 38.0009 18.1336 38.0009Z" fill="white"/>
<path d="M26.3429 35.6328C26.0423 35.6328 25.7518 35.4719 25.5985 35.189L23.4878 31.2744C23.267 30.8635 23.4199 30.3514 23.8305 30.1301C24.2409 29.9098 24.753 30.0625 24.9748 30.4728L27.0856 34.3875C27.3064 34.7983 27.1534 35.3105 26.7428 35.5318C26.6156 35.6002 26.4783 35.6328 26.3428 35.6328H26.3429Z" fill="white"/>
<path d="M9.92163 35.6309C9.78644 35.6309 9.64887 35.5983 9.5219 35.5299C9.11156 35.3086 8.95809 34.7964 9.17942 34.3856L11.2902 30.471C11.5115 30.0606 12.0237 29.9077 12.4339 30.1282C12.8443 30.3496 12.9978 30.8617 12.7764 31.2725L10.6657 35.1872C10.5132 35.47 10.2222 35.6309 9.92159 35.6309H9.92163Z" fill="white"/>
</svg>
