<svg width="197" height="61" viewBox="0 0 197 61" fill="none" xmlns="http://www.w3.org/2000/svg">
<path d="M95.4713 45.3204C95.6182 45.3204 95.7398 45.2801 95.8375 45.1981C95.9344 45.1167 96.0075 45.0153 96.0567 44.8945C96.1067 44.7736 96.1313 44.6423 96.1313 44.4991C96.1313 44.3559 96.1067 44.2246 96.0567 44.1038C96.0075 43.9829 95.9337 43.883 95.8375 43.8032C95.7398 43.7234 95.6182 43.6831 95.4713 43.6831L94.0239 43.6883V47.1114H93.2566V43.5294H95.9322C96.1469 43.5294 96.3266 43.5772 96.4713 43.6726C96.6167 43.7681 96.7248 43.8882 96.7964 44.0329C96.868 44.1784 96.9038 44.3343 96.9038 44.5014C96.9038 44.6684 96.868 44.8244 96.7964 44.9698C96.7248 45.1153 96.6167 45.2354 96.4713 45.3308C96.3259 45.4263 96.1462 45.4741 95.9322 45.4741H95.8248L96.9754 47.1114H96.0962L94.8434 45.3204H95.4713Z" fill="#FCFCFC"/>
<path d="M105.816 47.1114V43.5294H108.747V43.6831H106.583V45.3204H107.873L107.765 45.4741H106.584V46.9577H109.055V47.1114H105.816Z" fill="#FCFCFC"/>
<path d="M120.038 43.5808C119.915 43.5808 119.792 43.5875 119.666 43.6009C119.539 43.6144 119.425 43.6442 119.325 43.6904C119.225 43.7367 119.141 43.8031 119.076 43.8903C119.012 43.9769 118.978 44.094 118.974 44.2409C118.971 44.3841 119.014 44.5013 119.105 44.5915C119.195 44.6818 119.314 44.7556 119.463 44.8138C119.611 44.872 119.78 44.9182 119.971 44.9518C120.162 44.9861 120.357 45.0212 120.554 45.057C120.752 45.0928 120.947 45.1345 121.141 45.1823C121.333 45.23 121.504 45.2942 121.652 45.374C121.8 45.4538 121.921 45.5552 122.013 45.6783C122.105 45.8014 122.151 45.958 122.151 46.149C122.151 46.3608 122.09 46.5346 121.968 46.6704C121.844 46.8069 121.685 46.9151 121.489 46.9956C121.293 47.0754 121.07 47.1321 120.821 47.1649C120.572 47.197 120.32 47.2134 120.064 47.2134C119.887 47.2134 119.695 47.1978 119.489 47.1672C119.282 47.1366 119.079 47.0874 118.88 47.0187C118.68 46.9509 118.493 46.8614 118.32 46.7502C118.146 46.6398 118.004 46.5041 117.895 46.3437H118.581C118.639 46.4563 118.719 46.557 118.819 46.6458C118.92 46.7345 119.034 46.8099 119.162 46.8711C119.29 46.9322 119.431 46.9792 119.584 47.012C119.738 47.0449 119.898 47.0605 120.065 47.0605C120.297 47.0538 120.492 47.0284 120.648 46.9837C120.805 46.9397 120.93 46.8755 121.024 46.792C121.117 46.7084 121.185 46.604 121.226 46.4802C121.267 46.3556 121.287 46.2102 121.287 46.0423C121.287 45.882 121.242 45.7492 121.152 45.6433C121.061 45.5373 120.942 45.4516 120.794 45.3844C120.645 45.318 120.475 45.2643 120.284 45.2233C120.094 45.1823 119.899 45.1465 119.701 45.1159C119.504 45.0853 119.309 45.0525 119.119 45.0189C118.928 44.9846 118.758 44.9413 118.61 44.8884C118.461 44.8354 118.341 44.7668 118.249 44.681C118.157 44.596 118.111 44.4863 118.111 44.3536C118.111 44.2275 118.144 44.1178 118.211 44.0239C118.277 43.9299 118.365 43.8493 118.474 43.7807C118.583 43.7128 118.707 43.6554 118.848 43.6091C118.987 43.5629 119.129 43.5263 119.272 43.4995C119.415 43.4719 119.554 43.4532 119.686 43.4428C119.819 43.4323 119.938 43.4271 120.039 43.4271C120.217 43.4271 120.401 43.4428 120.592 43.4734C120.783 43.504 120.968 43.5539 121.146 43.6218C121.325 43.6904 121.495 43.7792 121.653 43.8903C121.811 44.0015 121.945 44.1365 122.055 44.2969H121.369C121.249 44.0679 121.082 43.8918 120.865 43.7673C120.648 43.6427 120.373 43.5808 120.038 43.5808Z" fill="#FCFCFC"/>
<path d="M130.991 43.5294H131.759V47.1114H130.991V43.5294Z" fill="#FCFCFC"/>
<path d="M140.599 43.5293H142.39C142.635 43.5293 142.88 43.5644 143.124 43.6345C143.367 43.7046 143.587 43.8127 143.781 43.959C143.976 44.1059 144.133 44.2909 144.254 44.5139C144.375 44.737 144.435 45.004 144.435 45.3143C144.435 45.6283 144.375 45.8976 144.254 46.1229C144.133 46.3482 143.976 46.5339 143.781 46.6808C143.587 46.8278 143.367 46.9359 143.124 47.0061C142.88 47.0762 142.635 47.1105 142.39 47.1105H140.599V43.5293ZM142.134 46.9576C142.349 46.9576 142.549 46.924 142.735 46.8576C142.921 46.7912 143.083 46.6905 143.221 46.5555C143.359 46.4205 143.468 46.2512 143.549 46.0461C143.628 45.8417 143.669 45.5992 143.669 45.3195C143.669 45.0532 143.629 44.819 143.549 44.6161C143.469 44.4132 143.359 44.2424 143.221 44.1044C143.083 43.9664 142.921 43.8612 142.735 43.7896C142.549 43.718 142.349 43.6822 142.134 43.6822H141.367V46.9568H142.134V46.9576Z" fill="#FCFCFC"/>
<path d="M153.276 47.1114V43.5294H156.206V43.6831H154.043V45.3204H155.332L155.225 45.4741H154.044V46.9577H156.514V47.1114H153.276Z" fill="#FCFCFC"/>
<path d="M165.355 43.5294H165.509V47.1114H165.355V43.5294ZM168.137 47.1114L165.611 43.5294H166.49L168.863 46.8965V43.5294H169.017V47.1114H168.137Z" fill="#FCFCFC"/>
<path d="M182.165 46.3586C182.052 46.516 181.917 46.6488 181.761 46.7577C181.604 46.8666 181.435 46.9546 181.257 47.021C181.078 47.0874 180.895 47.1359 180.707 47.1672C180.519 47.1978 180.339 47.2134 180.165 47.2134C180.002 47.2134 179.831 47.2015 179.653 47.1776C179.476 47.1538 179.302 47.1135 179.132 47.0575C178.961 47.0009 178.799 46.9255 178.645 46.83C178.491 46.7346 178.356 46.6167 178.239 46.4765C178.122 46.337 178.029 46.1721 177.961 45.9827C177.892 45.7932 177.858 45.5739 177.858 45.3248C177.858 45.0756 177.892 44.8548 177.961 44.6624C178.029 44.4699 178.122 44.3036 178.239 44.1634C178.355 44.0239 178.491 43.9068 178.645 43.8128C178.799 43.7188 178.961 43.6427 179.132 43.5853C179.302 43.5271 179.476 43.4861 179.653 43.4622C179.831 43.4383 180.002 43.4264 180.165 43.4264C180.342 43.4264 180.526 43.4421 180.717 43.4726C180.908 43.5032 181.094 43.5532 181.272 43.6211C181.451 43.6897 181.62 43.7785 181.778 43.8896C181.937 44.0008 182.071 44.1358 182.18 44.2961H181.494C181.375 44.0671 181.207 43.8911 180.991 43.7665C180.774 43.642 180.499 43.5801 180.165 43.5801C179.899 43.5801 179.67 43.6181 179.477 43.6949C179.283 43.7718 179.124 43.8844 178.998 44.0328C178.872 44.1813 178.779 44.3625 178.717 44.5781C178.655 44.7929 178.625 45.0406 178.625 45.3203C178.621 45.8797 178.744 46.3086 178.993 46.607C179.242 46.9054 179.633 47.0561 180.165 47.0598C180.496 47.0635 180.77 47.0031 180.986 46.8808C181.202 46.7577 181.37 46.5839 181.489 46.3586H182.165Z" fill="#FCFCFC"/>
<path d="M191.021 47.1114V43.5294H193.952V43.6831H191.788V45.3204H193.078L192.97 45.4741H191.789V46.9577H194.26V47.1114H191.021Z" fill="#FCFCFC"/>
<path d="M109.16 22.0757C114.619 23.2125 114.278 32.5022 108.032 32.5022H93.2559V13.0911H106.719C111.705 13.0911 112.519 19.5799 109.159 21.7982V22.0757H109.16ZM104.357 21.9653C108.53 21.9653 108.53 13.8959 104.357 13.8959L97.1924 13.9235V21.9653H104.357ZM97.1924 31.6705L105.67 31.6981C110.183 31.7257 110.183 22.797 105.67 22.797H97.1924V31.6705Z" fill="#FCFCFC"/>
<path d="M115.529 32.5022V13.0911H131.413V13.9228H119.687V22.7963H126.673L126.091 23.628H119.687V31.6698H133.076V32.5015H115.529V32.5022Z" fill="#FCFCFC"/>
<path d="M147.6 22.797C152.311 22.797 152.311 13.8683 147.6 13.8959L139.849 13.9235V32.503H135.74V13.0918H150.065C156.995 13.0918 157.023 23.6287 150.065 23.6287H149.49L155.654 32.5022H150.942L144.232 22.797H147.6Z" fill="#FCFCFC"/>
<path d="M158.892 32.5022V13.0911H174.777V13.9228H163.05V22.7963H170.036L169.454 23.628H163.05V31.6698H176.439V32.5015H158.892V32.5022Z" fill="#FCFCFC"/>
<path d="M192.715 23.5869H187.699L188.217 22.7925H196.247V28.1654C194.198 31.4206 189.818 32.5858 186.616 32.5858C182.071 32.5858 176.018 30.5479 176.018 22.8194C176.042 15.0379 182.094 13 186.616 13C189.866 13 193.869 14.1644 195.895 17.4994H192.739C191.655 15.1438 189.677 13.7944 186.616 13.7944C181.717 13.7944 179.551 17.0235 179.527 22.7933C179.503 28.563 181.717 31.7653 186.616 31.7921C189.63 31.8182 191.632 30.4688 192.715 28.1662V23.5869Z" fill="#FCFCFC"/>
<path d="M7.32031 60.8126C8.98024 59.1341 10.9176 57.7763 12.9242 56.5301C13.9354 55.9186 14.9839 55.3702 16.042 54.8301C16.5729 54.5652 17.1181 54.3294 17.6609 54.0876L19.3134 53.415C23.7585 51.7016 28.5526 50.7649 33.3743 50.7307C38.1975 50.6875 43.0199 51.6153 47.4732 53.3391C51.9153 55.0979 56.0047 57.6238 59.4141 60.8274L59.2963 61.0001C58.3179 60.3937 57.3619 59.7501 56.3649 59.1758L54.8564 58.3373C54.6036 58.1997 54.356 58.0531 54.0995 57.9229L53.3225 57.5479L51.7722 56.7913C51.2472 56.5569 50.7133 56.3434 50.1838 56.1187C49.1346 55.6455 48.0332 55.307 46.9535 54.9142C42.5784 53.5043 37.9842 52.77 33.3877 52.8183C28.7942 52.8511 24.2037 53.5906 19.8242 54.999C17.6318 55.6939 15.4917 56.5525 13.4186 57.5487C11.3441 58.5367 9.31804 59.6564 7.44559 60.9792L7.32031 60.8126Z" fill="#FCFCFC"/>
<path d="M66.6066 53.5549C64.3538 52.2388 62.3516 50.5752 60.4009 48.8551C59.4501 47.9713 58.5157 47.0651 57.6104 46.1291C57.1503 45.6679 56.7141 45.1843 56.2846 44.6962C55.8483 44.2134 55.4218 43.7208 55.0035 43.2216C51.6516 39.2338 48.7366 34.8532 46.4115 30.1735C44.0491 25.5124 42.2938 20.5514 41.0939 15.4893C39.9292 10.4182 39.3408 5.22072 39.5682 0.0596389L39.777 0.0395508C39.9418 1.30434 40.0671 2.57359 40.2647 3.83242C40.4758 5.08977 40.6473 6.35307 40.9195 7.59926L41.2878 9.47486L41.7241 11.3356C41.9933 12.5818 42.3668 13.8012 42.692 15.0332C43.425 17.4728 44.2057 19.9012 45.1602 22.2648L45.5055 23.1554L45.8798 24.0348C46.1319 24.6196 46.3728 25.2096 46.6337 25.7906C47.1699 26.9468 47.6964 28.1067 48.2825 29.2383C50.5487 33.8027 53.257 38.1476 56.3316 42.2157C57.8699 44.2491 59.506 46.2095 61.2323 48.0858C62.9638 49.9548 64.7677 51.7746 66.7341 53.3898L66.6066 53.5549Z" fill="#FCFCFC"/>
<path d="M0.127516 53.5154C2.38027 52.1993 4.38247 50.5357 6.33322 48.8156C7.28399 47.9318 8.21835 47.0256 9.12363 46.0896C9.58372 45.6283 10.02 45.1448 10.4495 44.6567C10.8857 44.1738 11.3123 43.6813 11.7306 43.1821C15.0825 39.1943 17.9974 34.8137 20.3225 30.1339C22.6849 25.4728 24.4403 20.5119 25.6401 15.4498C26.8049 10.3787 27.3933 5.18117 27.1658 0.020087L26.957 0C26.7922 1.26479 26.667 2.53404 26.4693 3.79288C26.2583 5.05022 26.0868 6.31353 25.8146 7.55971L25.4462 9.43532L25.01 11.296C24.7408 12.5422 24.3672 13.7616 24.0421 14.9937C23.3091 17.4332 22.5283 19.8616 21.5738 22.2253L21.2286 23.1159L20.8542 23.9953C20.6022 24.58 20.3613 25.17 20.1003 25.7511C19.5642 26.9073 19.0377 28.0671 18.4516 29.1987C16.1854 33.7631 13.477 38.1081 10.4025 42.1762C8.86413 44.2096 7.22806 46.17 5.50177 48.0463C3.77025 49.9152 1.96641 51.735 0 53.3503L0.127516 53.5154Z" fill="#FCFCFC"/>
</svg>
