<svg width="100" height="100" viewBox="0 0 100 100" fill="none" xmlns="http://www.w3.org/2000/svg">
<path d="M100 0L0 100H100V0Z" fill="#008B64"/>
<path d="M59.2635 78.598L58.0034 79.8581L55.2796 78.5853L51.2703 82.5946L52.5431 85.3184L51.2831 86.5784L45.6955 74.3469L47.0319 73.0105L59.2635 78.598ZM47.7701 75.0978L50.5703 81.08L53.765 77.8853L47.7701 75.0978ZM58.1508 70.5466L66.793 71.0685L65.342 72.5194L57.2216 72.0867L61.4982 76.3633L60.3145 77.547L51.405 68.6374L52.5887 67.4537L56.6107 71.4758L56.3052 63.7372L57.7562 62.2862L58.1508 70.5466ZM65.4031 54.6393L73.1926 62.4288L74.1472 61.4742L76.9728 64.2998L75.7891 65.4835L74.0835 63.778L67.8469 70.0146L58.9373 61.1051L60.121 59.9214L67.9105 67.7109L72.0089 63.6125L64.2194 55.823L65.4031 54.6393ZM76.6346 61.2269L67.725 52.3174L68.9087 51.1337L77.8183 60.0432L76.6346 61.2269ZM73.2511 46.7913L76.8149 43.2275L85.7244 52.1371L84.5534 53.308L81.1424 49.897L79.3732 51.6661L80.4805 57.381L79.1441 58.7174L78.024 52.8626C77.2773 53.3377 76.45 53.5202 75.5421 53.4099C74.6426 53.308 73.879 52.9432 73.2511 52.3153C72.4874 51.5516 72.1055 50.6352 72.1055 49.566C72.1055 48.4799 72.4874 47.555 73.2511 46.7913ZM77.6804 51.2207L80.0732 48.8278L76.7512 45.5058L74.3584 47.8987C73.9341 48.3229 73.722 48.8575 73.722 49.5024C73.722 50.1303 73.9553 50.6776 74.422 51.1443C74.8887 51.611 75.4403 51.8486 76.0766 51.8571C76.7215 51.8571 77.2561 51.6449 77.6804 51.2207Z" fill="white"/>
</svg>
