<svg width="236" height="235" viewBox="0 0 236 235" fill="none" xmlns="http://www.w3.org/2000/svg">
<circle cx="118.115" cy="117.5" r="115.692" stroke="#2C2E65" stroke-width="3.61538"/>
<path d="M154.271 93.0509L154.265 93.0451C151.529 90.0733 148.472 89.7084 146.815 89.5162L154.271 93.0509ZM154.271 93.0509L154.276 93.0566M154.271 93.0509L154.276 93.0566M154.276 93.0566C155.354 94.2067 156.118 96.0494 156.618 97.871C157.101 99.6329 157.273 101.134 157.303 101.42C157.303 101.421 157.303 101.423 157.303 101.424L157.304 101.432C157.305 101.435 157.305 101.438 157.305 101.442C157.338 101.825 157.883 108.165 157.883 114.513C157.883 114.513 157.883 114.513 157.883 114.513V120.585C157.883 126.883 157.347 133.172 157.306 133.646L157.3 133.698C157.264 133.991 157.067 135.457 156.578 137.179C156.069 138.971 155.311 140.795 154.276 141.943L154.269 141.951C151.573 144.977 148.592 145.305 146.978 145.48C146.827 145.496 146.663 145.513 146.509 145.533L146.422 145.543C141.217 145.928 134.67 146.148 129.383 146.272C126.738 146.334 124.416 146.372 122.745 146.394C121.91 146.405 121.238 146.412 120.77 146.417C120.536 146.419 120.353 146.42 120.226 146.421L120.079 146.422L120.039 146.423L120.025 146.423L120.005 146.423L120.004 146.423C119.081 146.409 100.29 146.12 94.2828 145.543L94.1677 145.527C93.9308 145.487 93.6288 145.451 93.3607 145.42L93.3032 145.413C91.2795 145.177 88.1022 144.775 85.581 141.96L85.569 141.947L85.5568 141.934C84.4797 140.778 83.7185 138.955 83.2218 137.164C82.7383 135.422 82.5675 133.944 82.5394 133.676L82.5369 133.652C82.4996 133.221 81.96 126.907 81.96 120.585V114.513C81.96 108.214 82.4957 101.923 82.5365 101.452L82.542 101.402C82.5788 101.105 82.776 99.6402 83.2646 97.9193C83.7734 96.1269 84.5316 94.3027 85.5659 93.1559L85.5659 93.1559L85.5732 93.1478C88.3227 90.062 91.3384 89.7039 92.9572 89.5133L92.9593 89.513C92.98 89.5106 93.0015 89.508 93.0235 89.5054C93.1221 89.4938 93.2319 89.4808 93.3349 89.467L93.4201 89.458C98.6735 89.0727 105.245 88.8525 110.544 88.7286C113.195 88.6667 115.52 88.6291 117.192 88.6069C118.028 88.5958 118.701 88.5885 119.169 88.5841C119.403 88.5818 119.586 88.5803 119.713 88.5793L119.86 88.5782L119.9 88.5779L119.914 88.5778H119.928M154.276 93.0566L119.928 88.5778M119.928 88.5778L119.943 88.5779L119.983 88.5782L120.13 88.5793C120.256 88.5803 120.439 88.5818 120.673 88.5841C121.141 88.5885 121.813 88.5958 122.649 88.6069C124.319 88.6291 126.642 88.6667 129.286 88.7286C134.574 88.8525 141.121 89.0727 146.326 89.4579M119.928 88.5778L146.326 89.4579M146.326 89.4579L146.412 89.467C146.543 89.4845 146.682 89.5008 146.815 89.5161L146.326 89.4579Z" stroke="#2C2E65" stroke-width="3.61538"/>
<path d="M113.269 128.155L113.269 128.155L131.777 118.788C131.778 118.787 131.778 118.787 131.778 118.787C132.308 118.519 132.574 118.042 132.576 117.586L134.384 117.594M113.269 128.155L131.788 116.382C132.316 116.654 132.578 117.132 132.576 117.587L134.384 117.594M113.269 128.155C113.017 128.283 112.745 128.346 112.475 128.346C112.18 128.346 111.885 128.271 111.618 128.121C111.118 127.84 110.884 127.397 110.884 126.95V108.05C110.884 107.6 111.119 107.157 111.623 106.876L113.269 128.155ZM134.384 117.594C134.388 116.419 133.711 115.339 132.615 114.775L132.594 120.4C133.693 119.844 134.379 118.769 134.384 117.594ZM113.28 106.85L131.788 116.382L111.623 106.876C112.136 106.589 112.753 106.578 113.28 106.85C113.28 106.85 113.28 106.85 113.28 106.85Z" stroke="#2C2E65" stroke-width="3.61538"/>
</svg>
